<?xml version="1.0" encoding="UTF-8"?>
<!-- Generator: visioncortex VTracer 0.6.3 -->
<svg version="1.1" xmlns="http://www.w3.org/2000/svg" width="1280" height="798">
<path d="M0 0 C3.38 0.01 6.75 0 10.13 -0.01 C25.74 -0.01 41.13 0.46 56.63 2.44 C58.16 2.64 58.16 2.64 59.71 2.83 C81.96 5.78 103.49 11.46 124.88 18.13 C126 18.47 126 18.47 127.14 18.82 C155.85 27.72 183.07 40.84 208.88 56.13 C210.24 56.92 211.61 57.71 212.97 58.5 C214.36 59.31 215.74 60.13 217.13 60.94 C217.8 61.33 218.47 61.71 219.16 62.11 C220.77 63.06 222.33 64.09 223.88 65.13 C223.88 65.79 223.88 66.45 223.88 67.13 C224.73 67.36 225.57 67.58 226.44 67.82 C230.39 69.32 233.77 71.26 236.88 74.13 C236.88 74.79 236.88 75.45 236.88 76.13 C237.67 76.44 238.45 76.75 239.26 77.07 C241.88 78.13 241.88 78.13 243.88 79.13 C243.88 79.79 243.88 80.45 243.88 81.13 C244.62 81.4 245.37 81.67 246.13 81.94 C248.77 83.08 250.74 84.22 252.88 86.13 C252.88 86.79 252.88 87.45 252.88 88.13 C253.47 88.4 254.06 88.68 254.67 88.96 C256.81 90.09 258.42 91.29 260.23 92.88 C261.14 93.67 261.14 93.67 262.06 94.47 C262.68 95.02 263.31 95.57 263.94 96.13 C265.18 97.22 266.43 98.3 267.67 99.38 C268.21 99.86 268.76 100.34 269.32 100.83 C271.06 102.33 271.06 102.33 273.88 104.13 C273.88 104.79 273.88 105.45 273.88 106.13 C274.54 106.13 275.2 106.13 275.88 106.13 C275.88 106.79 275.88 107.45 275.88 108.13 C276.87 108.46 277.86 108.79 278.88 109.13 C278.88 109.79 278.88 110.45 278.88 111.13 C279.54 111.13 280.2 111.13 280.88 111.13 C280.88 111.79 280.88 112.45 280.88 113.13 C281.54 113.13 282.2 113.13 282.88 113.13 C282.88 113.79 282.88 114.45 282.88 115.13 C283.84 115.53 283.84 115.53 284.82 115.94 C286.88 117.13 286.88 117.13 287.88 120.13 C288.54 120.13 289.2 120.13 289.88 120.13 C289.88 120.79 289.88 121.45 289.88 122.13 C290.54 122.13 291.2 122.13 291.88 122.13 C291.88 122.79 291.88 123.45 291.88 124.13 C292.87 124.46 293.86 124.79 294.88 125.13 C294.88 125.79 294.88 126.45 294.88 127.13 C295.54 127.13 296.2 127.13 296.88 127.13 C296.88 127.79 296.88 128.45 296.88 129.13 C297.54 129.13 298.2 129.13 298.88 129.13 C300.34 130.74 301.72 132.42 303.07 134.13 C306.48 138.41 309.97 142.54 313.67 146.57 C314.88 148.13 314.88 148.13 314.88 150.13 C315.54 150.13 316.2 150.13 316.88 150.13 C318.68 152.39 320.36 154.64 322.01 157.01 C322.48 157.66 322.94 158.31 323.43 158.98 C326.88 163.87 326.88 163.87 326.88 166.13 C327.54 166.13 328.2 166.13 328.88 166.13 C329.54 168.11 330.2 170.09 330.88 172.13 C331.54 172.13 332.2 172.13 332.88 172.13 C334.17 173.81 334.17 173.81 335.51 176.01 C336.18 177.08 336.18 177.08 336.86 178.19 C337.88 180.13 337.88 180.13 337.88 182.13 C338.54 182.13 339.2 182.13 339.88 182.13 C340.28 182.88 340.68 183.63 341.09 184.4 C341.88 185.87 341.88 185.87 342.69 187.38 C343.22 188.35 343.74 189.33 344.28 190.33 C345.78 193.11 345.78 193.11 347.58 195.3 C348.88 197.13 348.88 197.13 348.88 200.13 C349.54 200.13 350.2 200.13 350.88 200.13 C351.39 201.17 351.39 201.17 351.91 202.23 C354.7 207.86 357.58 213.39 360.63 218.88 C365.8 228.36 369.74 238.39 373.77 248.39 C374.71 250.71 375.67 253.01 376.64 255.3 C380.52 264.61 383.43 274.1 386.21 283.78 C386.83 285.94 387.47 288.09 388.11 290.24 C389.89 296.22 391.38 301.9 391.88 308.13 C389.57 308.13 387.26 308.13 384.88 308.13 C384.54 306.8 384.54 306.8 384.18 305.45 C379.45 286.86 379.45 286.86 372.98 268.85 C371.79 265.89 370.75 262.9 369.72 259.89 C367.52 253.47 365.21 247.37 362.02 241.36 C360.87 239.1 359.96 236.83 359.07 234.44 C356.56 227.97 353.18 221.97 349.85 215.9 C349 214.35 348.17 212.8 347.35 211.25 C344.07 205.12 340.54 199.16 336.86 193.26 C335.04 190.28 333.42 187.62 332.88 184.13 C332.22 184.13 331.56 184.13 330.88 184.13 C329.33 181.97 329.33 181.97 327.57 179.07 C325.46 175.64 323.34 172.3 320.94 169.07 C318.88 166.13 318.88 166.13 318.88 164.13 C318.22 164.13 317.56 164.13 316.88 164.13 C316.22 162.48 315.56 160.83 314.88 159.13 C314.22 159.13 313.56 159.13 312.88 159.13 C311.59 157.67 311.59 157.67 310.26 155.76 C309.59 154.82 309.59 154.82 308.91 153.86 C307.88 152.13 307.88 152.13 307.88 150.13 C307.22 150.13 306.56 150.13 305.88 150.13 C304.33 148.34 304.33 148.34 302.57 145.94 C300.49 143.18 298.46 140.58 295.94 138.19 C295.26 137.51 294.58 136.83 293.88 136.13 C293.88 135.47 293.88 134.81 293.88 134.13 C293.22 134.13 292.56 134.13 291.88 134.13 C290.65 132.87 290.65 132.87 289.13 131.01 C285.47 126.7 281.56 122.69 277.57 118.69 C276.95 118.07 276.32 117.44 275.68 116.79 C274.8 115.91 274.8 115.91 273.89 115.01 C273.36 114.48 272.83 113.95 272.28 113.4 C270.89 112.02 270.89 112.02 268.88 111.13 C268.88 110.47 268.88 109.81 268.88 109.13 C268.05 108.78 268.05 108.78 267.2 108.42 C264.32 106.82 262.17 104.81 259.76 102.57 C256.57 99.49 256.57 99.49 252.88 97.13 C252.88 96.47 252.88 95.81 252.88 95.13 C252.05 94.73 252.05 94.73 251.19 94.32 C248.67 93.02 246.25 91.71 243.88 90.13 C243.88 89.47 243.88 88.81 243.88 88.13 C243.05 87.73 243.05 87.73 242.19 87.32 C239.67 86.02 237.25 84.71 234.88 83.13 C234.88 82.47 234.88 81.81 234.88 81.13 C234.19 80.89 233.49 80.65 232.77 80.4 C229.38 78.91 226.64 76.98 223.63 74.82 C218.56 71.22 213.42 67.98 207.88 65.13 C207.88 64.47 207.88 63.81 207.88 63.13 C206.89 63.13 205.9 63.13 204.88 63.13 C204.88 62.47 204.88 61.81 204.88 61.13 C204.17 61.03 203.45 60.94 202.71 60.84 C199.46 60.02 197.4 58.71 194.63 56.82 C190.61 54.17 186.7 51.96 182.25 50.15 C180.18 49.26 178.2 48.3 176.2 47.29 C162.48 40.37 148.3 34.41 133.88 29.13 C133.2 28.88 132.51 28.62 131.8 28.36 C112.5 21.32 92.15 16.37 71.88 13.13 C70.49 12.9 70.49 12.9 69.06 12.66 C16.82 3.96 -38.65 4.43 -90.12 18.13 C-91.29 18.44 -91.29 18.44 -92.5 18.76 C-116.04 25.06 -140.33 32.22 -162 43.54 C-165.08 45.11 -168.2 46.56 -171.34 47.99 C-178.53 51.29 -185.25 54.86 -191.92 59.12 C-195.39 61.3 -198.92 63.32 -202.49 65.32 C-206.25 67.43 -209.9 69.57 -213.37 72.13 C-216.12 74.13 -216.12 74.13 -218.12 74.13 C-218.12 74.79 -218.12 75.45 -218.12 76.13 C-220.21 77.61 -220.21 77.61 -223.06 79.32 C-227.76 82.21 -232.08 85.34 -236.34 88.85 C-238.12 90.13 -238.12 90.13 -240.12 90.13 C-240.12 90.79 -240.12 91.45 -240.12 92.13 C-241.98 93.82 -241.98 93.82 -244.43 95.69 C-245.63 96.62 -245.63 96.62 -246.86 97.57 C-249.12 99.13 -249.12 99.13 -252.12 100.13 C-252.12 100.79 -252.12 101.45 -252.12 102.13 C-256.59 106.13 -256.59 106.13 -259.12 106.13 C-259.12 106.79 -259.12 107.45 -259.12 108.13 C-260.76 109.82 -260.76 109.82 -262.93 111.69 C-263.64 112.31 -264.35 112.93 -265.07 113.57 C-267.12 115.13 -267.12 115.13 -270.12 116.13 C-270.12 116.79 -270.12 117.45 -270.12 118.13 C-270.78 118.13 -271.44 118.13 -272.12 118.13 C-272.52 119.03 -272.52 119.03 -272.93 119.94 C-274.12 122.13 -275.21 123.54 -277.12 125.13 C-277.78 125.13 -278.44 125.13 -279.12 125.13 C-279.12 125.79 -279.12 126.45 -279.12 127.13 C-279.78 127.13 -280.44 127.13 -281.12 127.13 C-281.16 127.69 -281.2 128.24 -281.24 128.82 C-282.32 131.66 -284 132.75 -286.36 134.56 C-289.23 137.12 -291.35 140.23 -293.6 143.34 C-294.1 143.93 -294.6 144.52 -295.12 145.13 C-295.78 145.13 -296.44 145.13 -297.12 145.13 C-297.34 145.66 -297.57 146.18 -297.8 146.72 C-299.59 149.98 -301.91 152.76 -304.24 155.63 C-308.73 161.22 -312.75 166.92 -316.56 173 C-317.07 173.7 -317.59 174.41 -318.12 175.13 C-318.78 175.13 -319.44 175.13 -320.12 175.13 C-320.38 175.85 -320.65 176.58 -320.93 177.32 C-322.12 180.14 -323.52 182.52 -325.2 185.08 C-325.8 186.01 -326.4 186.94 -327.03 187.9 C-328.28 189.83 -329.54 191.75 -330.8 193.68 C-334.67 199.65 -338.09 205.68 -341.12 212.13 C-341.78 212.13 -342.44 212.13 -343.12 212.13 C-343.21 212.64 -343.3 213.14 -343.4 213.67 C-344.41 217.15 -346.04 220.31 -347.62 223.57 C-352.05 232.84 -356.13 242.25 -360.11 251.72 C-360.73 253.22 -361.36 254.71 -362 256.2 C-366.27 266.22 -369.47 276.41 -372.46 286.87 C-373.01 288.76 -373.59 290.65 -374.17 292.53 C-380.17 312.2 -383.93 332.71 -386.12 353.13 C-386.24 354.18 -386.24 354.18 -386.36 355.24 C-388.01 369.77 -388.48 384.15 -388.43 398.76 C-388.43 399.85 -388.43 400.94 -388.43 402.07 C-388.39 417.69 -387.92 433 -385.53 448.46 C-385.13 451.04 -384.79 453.61 -384.46 456.2 C-381.76 476.79 -377.23 497.25 -370.81 517 C-370.17 518.97 -369.56 520.94 -368.95 522.92 C-363.5 540.06 -356.36 556.89 -348.2 572.92 C-347.87 573.56 -347.55 574.2 -347.21 574.86 C-346.3 576.65 -345.37 578.44 -344.44 580.23 C-343.12 583.13 -343.12 583.13 -343.12 586.13 C-342.46 586.13 -341.8 586.13 -341.12 586.13 C-340.78 586.86 -340.43 587.58 -340.08 588.33 C-336.35 596.05 -332.03 603.14 -327.24 610.26 C-325.89 612.28 -324.54 614.3 -323.19 616.33 C-322.3 617.64 -322.3 617.64 -321.4 618.98 C-320.12 621.13 -320.12 621.13 -320.12 623.13 C-319.46 623.13 -318.8 623.13 -318.12 623.13 C-316.95 624.75 -315.86 626.43 -314.81 628.13 C-310.74 634.43 -306.16 640.14 -301.34 645.87 C-300.79 646.53 -300.24 647.18 -299.68 647.86 C-299.19 648.44 -298.69 649.02 -298.18 649.62 C-297.12 651.13 -297.12 651.13 -297.12 653.13 C-296.46 653.13 -295.8 653.13 -295.12 653.13 C-293.62 654.81 -292.19 656.55 -290.81 658.32 C-288.42 661.35 -286.08 664.17 -283.32 666.87 C-281.12 669.13 -281.12 669.13 -281.12 671.13 C-280.46 671.13 -279.8 671.13 -279.12 671.13 C-279.12 671.79 -279.12 672.45 -279.12 673.13 C-278.52 673.4 -277.92 673.67 -277.31 673.94 C-275.12 675.13 -273.7 676.23 -272.12 678.13 C-272.12 678.79 -272.12 679.45 -272.12 680.13 C-271.46 680.13 -270.8 680.13 -270.12 680.13 C-270.12 680.79 -270.12 681.45 -270.12 682.13 C-269.54 682.4 -268.95 682.67 -268.35 682.94 C-266.09 684.15 -264.31 685.47 -262.37 687.13 C-261.75 687.65 -261.14 688.16 -260.51 688.69 C-259.12 690.13 -259.12 690.13 -259.12 692.13 C-258.52 692.42 -257.92 692.71 -257.31 693.01 C-255.12 694.13 -255.12 694.13 -252.12 696.13 C-252.12 696.79 -252.12 697.45 -252.12 698.13 C-251.55 698.4 -250.97 698.67 -250.38 698.94 C-248.04 700.17 -245.99 701.56 -243.87 703.13 C-243.16 703.65 -242.45 704.16 -241.73 704.69 C-240.93 705.4 -240.93 705.4 -240.12 706.13 C-240.12 706.79 -240.12 707.45 -240.12 708.13 C-239.39 708.38 -238.67 708.63 -237.92 708.89 C-234.88 710.24 -232.78 711.86 -230.24 714.01 C-226.35 717.21 -222.58 719.8 -218.12 722.13 C-218.12 722.79 -218.12 723.45 -218.12 724.13 C-217.45 724.36 -216.77 724.6 -216.08 724.84 C-212.36 726.46 -209.09 728.56 -205.68 730.76 C-198.28 735.44 -190.78 739.88 -183.12 744.13 C-182.51 744.47 -181.9 744.81 -181.28 745.15 C-172.44 750.05 -163.48 754.29 -154.12 758.13 C-153.13 758.55 -152.15 758.97 -151.14 759.4 C-142.89 762.9 -134.55 766.1 -126.12 769.13 C-125.27 769.44 -124.42 769.75 -123.54 770.06 C-37 801.14 59.87 797.15 163.88 757.13 C166.57 755.83 169.23 754.49 171.88 753.13 C173.02 752.57 174.16 752 175.34 751.42 C187.66 745.37 187.66 745.37 199.5 738.46 C201.88 737.13 201.88 737.13 204.88 737.13 C204.88 736.47 204.88 735.81 204.88 735.13 C205.87 735.13 206.86 735.13 207.88 735.13 C207.88 734.47 207.88 733.81 207.88 733.13 C208.58 732.77 209.28 732.4 210.01 732.03 C215.36 729.19 220.32 726.25 225.1 722.52 C232.02 717.13 232.02 717.13 234.88 717.13 C234.88 716.47 234.88 715.81 234.88 715.13 C237.84 712.96 240.39 711.29 243.88 710.13 C243.88 709.47 243.88 708.81 243.88 708.13 C245.34 706.84 245.34 706.84 247.26 705.51 C248.2 704.84 248.2 704.84 249.16 704.15 C250.88 703.13 250.88 703.13 252.88 703.13 C252.88 702.47 252.88 701.81 252.88 701.13 C254.68 699.58 254.68 699.58 257.07 697.82 C259.84 695.74 262.44 693.71 264.82 691.19 C265.5 690.51 266.18 689.83 266.88 689.13 C267.54 689.13 268.2 689.13 268.88 689.13 C268.88 688.47 268.88 687.81 268.88 687.13 C270.14 685.9 270.14 685.9 272.01 684.38 C276.32 680.72 280.32 676.81 284.32 672.82 C284.95 672.19 285.57 671.57 286.22 670.93 C286.81 670.34 287.4 669.75 288 669.14 C288.53 668.61 289.06 668.08 289.61 667.53 C290.99 666.14 290.99 666.14 291.88 664.13 C292.54 664.13 293.2 664.13 293.88 664.13 C294.14 663.55 294.4 662.98 294.67 662.38 C295.98 659.96 297.47 658.17 299.32 656.13 C301.16 654.09 302.89 652.12 304.48 649.88 C305.17 649.01 305.17 649.01 305.88 648.13 C306.54 648.13 307.2 648.13 307.88 648.13 C308.15 647.57 308.42 647.02 308.69 646.44 C309.99 643.92 311.31 641.49 312.88 639.13 C313.54 639.13 314.2 639.13 314.88 639.13 C315.54 637.48 316.2 635.83 316.88 634.13 C317.54 634.13 318.2 634.13 318.88 634.13 C319.12 633.44 319.35 632.76 319.6 632.05 C321.14 628.54 323.22 625.55 325.44 622.44 C328.38 618.42 328.38 618.42 330.88 614.13 C331.54 614.13 332.2 614.13 332.88 614.13 C332.96 613.61 333.04 613.1 333.12 612.57 C334.2 609.1 336.11 606.2 338.01 603.13 C338.83 601.77 339.66 600.41 340.48 599.05 C341.89 596.75 343.3 594.45 344.72 592.15 C349.7 583.86 353.76 575.2 357.81 566.44 C358.78 564.34 359.79 562.25 360.8 560.17 C364.58 552.37 367.66 544.51 370.43 536.3 C371.45 533.28 372.61 530.35 373.83 527.41 C376.2 521.55 377.86 515.54 379.51 509.44 C380.1 507.27 380.7 505.1 381.3 502.93 C381.57 501.93 381.84 500.92 382.13 499.89 C383.02 496.63 383.94 493.38 384.88 490.13 C387.19 490.13 389.5 490.13 391.88 490.13 C390.8 500.52 387.95 509.98 384.65 519.84 C383.96 521.91 383.29 523.98 382.62 526.05 C377.96 540.47 372.4 554.45 365.88 568.13 C365.23 569.54 364.59 570.95 363.94 572.36 C360.63 579.55 357.29 586.56 353.01 593.25 C351.73 595.24 351.73 595.24 350.88 598.13 C350.22 598.13 349.56 598.13 348.88 598.13 C348.79 598.68 348.7 599.22 348.6 599.78 C347.67 602.81 346.13 605.06 344.38 607.69 C342.49 610.56 340.97 612.87 339.88 616.13 C339.22 616.13 338.56 616.13 337.88 616.13 C337.61 616.85 337.35 617.57 337.07 618.32 C335.88 621.13 334.61 623.61 332.88 626.13 C332.22 626.13 331.56 626.13 330.88 626.13 C330.68 626.77 330.47 627.42 330.26 628.08 C328.31 632.4 325.62 636.09 322.88 639.94 C322.34 640.73 321.79 641.52 321.23 642.33 C320.7 643.08 320.17 643.82 319.63 644.59 C319.15 645.27 318.67 645.95 318.18 646.65 C317.75 647.14 317.32 647.63 316.88 648.13 C316.22 648.13 315.56 648.13 314.88 648.13 C314.61 648.72 314.33 649.32 314.05 649.93 C312.93 652.04 311.77 653.62 310.2 655.41 C309.69 656 309.17 656.6 308.64 657.21 C308.1 657.83 307.56 658.44 307.01 659.07 C305.95 660.28 304.89 661.5 303.83 662.72 C303.32 663.3 302.82 663.87 302.3 664.47 C301.02 665.96 299.82 667.51 298.62 669.07 C298.05 669.75 297.47 670.43 296.88 671.13 C296.22 671.13 295.56 671.13 294.88 671.13 C294.55 672.12 294.22 673.11 293.88 674.13 C293.22 674.13 292.56 674.13 291.88 674.13 C291.88 674.79 291.88 675.45 291.88 676.13 C291.22 676.13 290.56 676.13 289.88 676.13 C289.88 676.79 289.88 677.45 289.88 678.13 C289.22 678.13 288.56 678.13 287.88 678.13 C287.61 678.77 287.35 679.41 287.07 680.07 C285.88 682.13 285.88 682.13 282.88 683.13 C282.88 683.79 282.88 684.45 282.88 685.13 C282.22 685.13 281.56 685.13 280.88 685.13 C280.88 685.79 280.88 686.45 280.88 687.13 C280.22 687.13 279.56 687.13 278.88 687.13 C278.55 688.12 278.22 689.11 277.88 690.13 C277.22 690.13 276.56 690.13 275.88 690.13 C275.88 690.79 275.88 691.45 275.88 692.13 C275.22 692.13 274.56 692.13 273.88 692.13 C273.88 692.79 273.88 693.45 273.88 694.13 C272.27 695.59 270.59 696.97 268.88 698.32 C264.61 701.73 260.47 705.22 256.44 708.92 C254.88 710.13 254.88 710.13 252.88 710.13 C252.88 710.79 252.88 711.45 252.88 712.13 C251.42 713.42 251.42 713.42 249.51 714.76 C248.57 715.42 248.57 715.42 247.61 716.11 C245.88 717.13 245.88 717.13 243.88 717.13 C243.88 717.79 243.88 718.45 243.88 719.13 C239.5 722.13 239.5 722.13 236.88 722.13 C236.88 722.79 236.88 723.45 236.88 724.13 C234.55 725.86 234.55 725.86 231.51 727.76 C230.51 728.39 229.51 729.02 228.48 729.67 C225.88 731.13 225.88 731.13 223.88 731.13 C223.88 731.79 223.88 732.45 223.88 733.13 C222.42 734.21 222.42 734.21 220.37 735.37 C219.63 735.8 218.89 736.23 218.13 736.67 C217.35 737.11 216.56 737.55 215.76 738.01 C210.68 740.9 205.73 743.86 200.88 747.13 C192.56 752.07 183.77 756.09 175 760.15 C173.04 761.06 171.1 761.98 169.16 762.92 C118.31 787.21 62.91 798.37 6.76 798.26 C3.39 798.26 0.01 798.26 -3.36 798.27 C-33.03 798.28 -61.2 794.84 -90.12 788.13 C-91.06 787.92 -92 787.7 -92.96 787.48 C-118.22 781.68 -143.35 773.07 -166.34 761.06 C-168.84 759.76 -171.35 758.55 -173.93 757.42 C-186.95 751.64 -199.05 744.31 -211.2 736.91 C-213.03 735.79 -214.86 734.69 -216.7 733.6 C-218.54 732.5 -220.34 731.32 -222.12 730.13 C-222.12 729.47 -222.12 728.81 -222.12 728.13 C-222.83 727.89 -223.53 727.64 -224.26 727.39 C-227.51 725.96 -229.99 724.16 -232.81 722.01 C-233.33 721.61 -233.85 721.21 -234.38 720.8 C-238.57 717.59 -242.69 714.31 -246.78 710.99 C-249.69 708.68 -252.69 706.5 -255.72 704.36 C-256.18 703.95 -256.64 703.55 -257.12 703.13 C-257.12 702.47 -257.12 701.81 -257.12 701.13 C-257.78 701.13 -258.44 701.13 -259.12 701.13 C-259.12 700.47 -259.12 699.81 -259.12 699.13 C-260.44 698.8 -261.76 698.47 -263.12 698.13 C-263.12 697.47 -263.12 696.81 -263.12 696.13 C-263.78 696.13 -264.44 696.13 -265.12 696.13 C-266.25 695.06 -267.38 693.98 -268.46 692.86 C-270.52 690.72 -272.63 688.64 -274.73 686.55 C-276.49 684.8 -278.24 683.06 -279.99 681.32 C-280.87 680.45 -281.74 679.59 -282.64 678.7 C-296.55 664.84 -296.55 664.84 -298.12 660.13 C-298.78 660.13 -299.44 660.13 -300.12 660.13 C-301.71 658.4 -301.71 658.4 -303.62 655.94 C-304.32 655.04 -305.02 654.14 -305.74 653.21 C-306.53 652.2 -307.31 651.18 -308.12 650.13 C-309.03 648.97 -309.95 647.8 -310.87 646.64 C-311.78 645.47 -312.7 644.3 -313.62 643.13 C-314.29 642.29 -314.29 642.29 -314.97 641.42 C-318.12 637.36 -318.12 637.36 -318.12 635.13 C-318.78 635.13 -319.44 635.13 -320.12 635.13 C-323.12 630.75 -323.12 630.75 -323.12 628.13 C-323.78 628.13 -324.44 628.13 -325.12 628.13 C-326.41 626.43 -326.41 626.43 -327.87 624.08 C-328.39 623.24 -328.92 622.39 -329.46 621.52 C-330.28 620.18 -330.28 620.18 -331.12 618.82 C-332.2 617.07 -333.28 615.33 -334.37 613.58 C-334.85 612.8 -335.33 612.02 -335.82 611.22 C-336.89 609.5 -338 607.81 -339.12 606.13 C-339.12 605.14 -339.12 604.15 -339.12 603.13 C-339.78 603.13 -340.44 603.13 -341.12 603.13 C-341.12 602.14 -341.12 601.15 -341.12 600.13 C-341.78 600.13 -342.44 600.13 -343.12 600.13 C-346.12 594.51 -346.12 594.51 -346.12 591.13 C-346.78 591.13 -347.44 591.13 -348.12 591.13 C-348.63 590.04 -349.13 588.95 -349.66 587.83 C-350.35 586.35 -351.05 584.86 -351.74 583.38 C-352.07 582.67 -352.41 581.96 -352.75 581.23 C-354.77 576.91 -356.87 572.64 -359.04 568.38 C-362.25 561.99 -365.01 555.45 -367.68 548.82 C-368.16 547.62 -368.64 546.43 -369.14 545.2 C-372.45 536.93 -375.62 528.69 -378.12 520.13 C-378.39 519.22 -378.65 518.3 -378.93 517.36 C-382.7 504.38 -386.33 491.36 -389.12 478.13 C-389.28 477.36 -389.45 476.59 -389.62 475.79 C-402.37 415.38 -398.61 350.42 -382.12 291.13 C-381.88 290.26 -381.64 289.39 -381.4 288.5 C-377.18 273.28 -371.59 258.78 -365.43 244.25 C-364.55 242.15 -363.68 240.05 -362.81 237.94 C-360.48 232.22 -358.01 226.71 -354.99 221.32 C-352.42 216.67 -350.14 212.04 -348.12 207.13 C-347.46 207.13 -346.8 207.13 -346.12 207.13 C-345.99 206.39 -345.87 205.65 -345.74 204.88 C-345.16 202.33 -344.38 200.4 -343.12 198.13 C-342.46 198.13 -341.8 198.13 -341.12 198.13 C-341.02 197.59 -340.92 197.04 -340.82 196.48 C-339.23 191.18 -335.61 186.54 -332.68 181.88 C-331.98 180.74 -331.28 179.6 -330.58 178.47 C-329.91 177.4 -329.25 176.34 -328.56 175.24 C-327.95 174.26 -327.34 173.28 -326.71 172.27 C-326.18 171.56 -325.66 170.86 -325.12 170.13 C-324.46 170.13 -323.8 170.13 -323.12 170.13 C-322.65 168.95 -322.65 168.95 -322.18 167.76 C-321.12 165.13 -321.12 165.13 -320.12 163.13 C-319.46 163.13 -318.8 163.13 -318.12 163.13 C-317.9 162.44 -317.68 161.74 -317.45 161.03 C-315.79 157.42 -313.42 154.7 -310.81 151.76 C-307.72 148.21 -304.7 144.71 -302.06 140.82 C-301.42 139.93 -300.78 139.04 -300.12 138.13 C-299.46 138.13 -298.8 138.13 -298.12 138.13 C-297.72 137.25 -297.72 137.25 -297.3 136.36 C-293.09 128.45 -285.22 122.11 -278.93 115.88 C-278.04 115 -277.15 114.11 -276.24 113.2 C-274.59 111.56 -272.94 109.93 -271.3 108.29 C-269.83 106.84 -268.38 105.35 -266.96 103.85 C-265.12 102.13 -265.12 102.13 -263.12 102.13 C-263.12 101.47 -263.12 100.81 -263.12 100.13 C-261.8 99.8 -260.48 99.47 -259.12 99.13 C-259.12 98.47 -259.12 97.81 -259.12 97.13 C-258.46 97.13 -257.8 97.13 -257.12 97.13 C-257.12 96.47 -257.12 95.81 -257.12 95.13 C-255.5 93.69 -255.5 93.69 -253.24 92.01 C-249.92 89.5 -246.65 86.95 -243.43 84.32 C-239.25 80.96 -234.97 77.77 -230.62 74.63 C-230.01 74.18 -229.39 73.74 -228.76 73.28 C-224.36 70.13 -224.36 70.13 -222.12 70.13 C-222.12 69.47 -222.12 68.81 -222.12 68.13 C-220.55 66.96 -220.55 66.96 -218.34 65.66 C-217.53 65.18 -216.71 64.69 -215.87 64.2 C-214.98 63.68 -214.1 63.16 -213.18 62.63 C-212.27 62.09 -211.36 61.56 -210.42 61 C-208.54 59.9 -206.67 58.8 -204.79 57.7 C-202.44 56.32 -200.11 54.92 -197.78 53.5 C-180.99 43.33 -163.52 34.96 -145.2 27.94 C-142.5 26.89 -139.84 25.73 -137.18 24.57 C-93.87 6.56 -46.59 -0.09 0 0 Z " fill="#2EB05C" transform="translate(397.11767578125,-0.13037109375)"/>
<path d="M0 0 C0 0.66 0 1.32 0 2 C0.57 2.06 1.13 2.11 1.71 2.17 C5.04 3.38 6.39 5.5 8.56 8.25 C9.33 9.2 10.09 10.16 10.88 11.14 C19.74 23.08 21.03 35.21 21.12 49.62 C21.13 50.69 21.13 50.69 21.14 51.78 C21.12 56.88 21.12 56.88 20 58 C17.32 58.1 14.67 58.13 11.99 58.11 C11.15 58.11 10.31 58.11 9.45 58.11 C6.66 58.11 3.88 58.11 1.09 58.1 C-0.84 58.1 -2.76 58.09 -4.69 58.09 C-9.77 58.09 -14.85 58.08 -19.93 58.07 C-25.12 58.06 -30.3 58.05 -35.48 58.05 C-45.65 58.04 -55.83 58.02 -66 58 C-65.39 60.07 -64.78 62.13 -64.16 64.19 C-63.65 65.92 -63.65 65.92 -63.13 67.67 C-60.34 75.89 -56.14 80.54 -48.66 84.81 C-38.02 89.58 -26.39 89.56 -15.5 85.75 C-10.52 83.75 -5.74 81.5 -1 79 C-0.01 78.67 0.98 78.34 2 78 C2 77.34 2 76.68 2 76 C2.99 76 3.98 76 5 76 C7.04 78.62 7.04 78.62 9.19 82 C9.74 82.86 9.74 82.86 10.3 83.73 C11.21 85.15 12.11 86.57 13 88 C-5.58 103.08 -25.67 104.8 -49 103 C-61.56 101.39 -73.82 95.8 -83 87 C-83 86.34 -83 85.68 -83 85 C-83.66 85 -84.32 85 -85 85 C-86.4 83.21 -86.4 83.21 -87.94 80.81 C-88.44 80.04 -88.95 79.26 -89.46 78.46 C-89.97 77.65 -90.48 76.84 -91 76 C-91.51 75.21 -92.03 74.42 -92.55 73.61 C-99.51 61.03 -99.92 44.26 -96.81 30.5 C-94.26 21.95 -90.69 13.92 -85 7 C-84.34 7 -83.68 7 -83 7 C-82.75 6.4 -82.5 5.8 -82.25 5.19 C-80.82 2.68 -79.43 1.52 -77 0 C-76.34 0 -75.68 0 -75 0 C-75 -0.66 -75 -1.32 -75 -2 C-73.27 -2.79 -71.54 -3.58 -69.81 -4.38 C-68.85 -4.82 -67.89 -5.26 -66.89 -5.71 C-44.91 -15.5 -20.22 -12.41 0 0 Z M-57.25 10.31 C-65.27 20.53 -66.11 29.61 -67 43 C-48.52 43 -30.04 43 -11 43 C-11 29.15 -12.06 19.62 -21 9 C-23.85 6.89 -26.74 5.37 -30 4 C-30.66 3.67 -31.32 3.34 -32 3 C-42.3 2.18 -50.09 2.44 -57.25 10.31 Z " fill="#2EB05C" transform="translate(815,369)"/>
<path d="M0 0 C0.98 0.31 1.97 0.63 2.98 0.95 C8.37 2.79 13.17 5 18 8 C18 8.66 18 9.32 18 10 C19.32 10.33 20.64 10.66 22 11 C22 11.66 22 12.32 22 13 C22.66 13 23.32 13 24 13 C36.82 28.09 40.15 43.68 39 63 C37.83 73.32 34.31 81.24 29 90 C28.34 90 27.68 90 27 90 C26.76 90.58 26.53 91.16 26.29 91.75 C21.24 100.57 9.03 106.23 -0.25 109.31 C-20.22 114.23 -43 112.99 -61.06 102.81 C-63.41 101.33 -63.41 101.33 -65 100 C-65 99.34 -65 98.68 -65 98 C-66.32 97.67 -67.64 97.34 -69 97 C-69 96.34 -69 95.68 -69 95 C-69.66 95 -70.32 95 -71 95 C-76.16 89.03 -80.4 82.47 -83 75 C-83.53 73.52 -83.53 73.52 -84.07 72.01 C-88.38 56.47 -85.99 37.11 -78.4 23.04 C-77.04 20.86 -75.76 18.86 -74 17 C-73.34 17 -72.68 17 -72 17 C-71.63 16.12 -71.63 16.12 -71.26 15.22 C-69.78 12.61 -68.2 11.31 -65.81 9.5 C-65.08 8.93 -64.34 8.37 -63.58 7.78 C-57.74 3.75 -52.7 1.34 -45.81 -0.19 C-45.11 -0.35 -44.42 -0.52 -43.7 -0.69 C-41.8 -1.13 -39.9 -1.57 -38 -2 C-37.36 -2.18 -36.72 -2.36 -36.06 -2.54 C-24.73 -5.08 -10.88 -3.49 0 0 Z M-40 15 C-40 15.66 -40 16.32 -40 17 C-41.32 17.33 -42.64 17.66 -44 18 C-44 18.66 -44 19.32 -44 20 C-44.66 20 -45.32 20 -46 20 C-55.12 35.66 -57.2 53.04 -53.91 70.93 C-52.11 76.99 -49.05 82.48 -46 88 C-45.34 88 -44.68 88 -44 88 C-43.67 88.99 -43.34 89.98 -43 91 C-37.85 96.32 -30.55 98.13 -23.31 98.31 C-15 97.96 -6.85 94.99 -1.01 88.94 C7.08 78.39 8.34 67.18 8.44 54.31 C8.45 52.75 8.45 52.75 8.47 51.15 C8.36 41.41 6.1 32.8 2 24 C1.34 24 0.68 24 0 24 C-0.25 22.95 -0.25 22.95 -0.5 21.88 C-3.02 17.05 -7.47 14.3 -12.24 11.85 C-15.93 10.71 -19.49 10.62 -23.31 10.62 C-24.07 10.62 -24.82 10.62 -25.6 10.62 C-31.33 10.73 -35.19 11.73 -40 15 Z " fill="#2EB05C" transform="translate(996,361)"/>
<path d="M0 0 C0 0.66 0 1.32 0 2 C0.99 2.33 1.98 2.66 3 3 C3 3.66 3 4.32 3 5 C3.66 5 4.32 5 5 5 C6.4 6.62 6.4 6.62 7.94 8.88 C8.44 9.59 8.95 10.31 9.46 11.05 C14.56 20.83 14.4 30.64 14.29 41.38 C14.29 43.05 14.28 44.72 14.28 46.38 C14.27 50.74 14.24 55.1 14.21 59.45 C14.18 63.91 14.16 68.37 14.15 72.83 C14.11 81.55 14.06 90.28 14 99 C4.64 99.02 -4.73 99.04 -14.09 99.05 C-18.44 99.06 -22.78 99.06 -27.13 99.08 C-31.33 99.09 -35.54 99.09 -39.74 99.09 C-41.33 99.1 -42.93 99.1 -44.53 99.11 C-65.45 99.17 -65.45 99.17 -74.31 96.06 C-75.79 95.55 -75.79 95.55 -77.3 95.04 C-79.63 94.14 -81.8 93.16 -84 92 C-84 91.34 -84 90.68 -84 90 C-84.72 89.79 -85.44 89.59 -86.19 89.38 C-91.49 86.78 -93.94 82.85 -95.81 77.44 C-98.16 68.53 -98.44 58.29 -94 50 C-87.67 40.78 -79.61 36.63 -69 34 C-68.3 33.81 -67.59 33.63 -66.87 33.44 C-56.68 31.17 -46.18 31.79 -35.81 31.88 C-33.79 31.89 -31.77 31.89 -29.75 31.9 C-24.83 31.92 -19.92 31.96 -15 32 C-15.27 29.94 -15.55 27.88 -15.83 25.82 C-15.99 24.67 -16.14 23.52 -16.3 22.34 C-17.66 15.86 -20.96 11.62 -26.06 7.56 C-36.92 2.39 -49.45 3.57 -60.56 7.15 C-65.9 9.15 -70.89 11.44 -76 14 C-79.46 8.06 -79.46 8.06 -83 2 C-78.35 -2.65 -73.61 -4.68 -67.38 -6.56 C-66.3 -6.89 -66.3 -6.89 -65.21 -7.22 C-43.02 -13.79 -19.73 -13.15 0 0 Z M-63 53 C-66.12 57.12 -66.43 60.33 -66.44 65.44 C-66.46 66.71 -66.48 67.99 -66.5 69.31 C-65.79 74.57 -63.43 77.57 -59.75 81.25 C-53.91 84.96 -47.51 85.29 -40.78 85.2 C-40.12 85.19 -39.46 85.19 -38.78 85.19 C-36.35 85.18 -33.93 85.15 -31.5 85.12 C-26.06 85.08 -20.61 85.04 -15 85 C-15 72.13 -15 59.26 -15 46 C-20.09 45.96 -25.19 45.92 -30.44 45.88 C-32.03 45.86 -33.61 45.84 -35.25 45.82 C-50.34 45.61 -50.34 45.61 -63 53 Z " fill="#2EB05C" transform="translate(561,369)"/>
<path d="M0 0 C3.95 -0.05 7.9 -0.09 11.85 -0.11 C13.86 -0.12 15.87 -0.15 17.87 -0.18 C19.13 -0.18 20.38 -0.19 21.68 -0.2 C22.84 -0.21 24 -0.22 25.2 -0.23 C28 0 28 0 30 2 C30.85 4.15 31.63 6.32 32.38 8.5 C33.81 12.64 35.26 16.76 36.94 20.81 C38.76 25.28 40.35 29.82 41.94 34.38 C44.03 40.41 46.33 46.3 48.85 52.17 C50.04 55.1 51.03 58.05 52 61.06 C53.28 65.05 54.76 68.78 56.56 72.56 C59.08 77.89 60.64 83.28 62 89 C62.66 89 63.32 89 64 89 C64.18 88.45 64.36 87.9 64.54 87.33 C66.29 81.98 68.23 76.73 70.31 71.5 C72.69 65.48 74.94 59.43 77.06 53.31 C79.35 46.73 81.87 40.28 84.5 33.82 C86.15 29.7 87.61 25.51 89.06 21.31 C95.64 2.36 95.64 2.36 98 0 C100.07 -0.09 102.15 -0.11 104.22 -0.1 C105.48 -0.09 106.74 -0.09 108.04 -0.09 C109.38 -0.08 110.72 -0.07 112.06 -0.06 C113.41 -0.06 114.75 -0.05 116.1 -0.05 C119.4 -0.04 122.7 -0.02 126 0 C125.4 3.37 124.56 6.43 123.33 9.62 C123 10.49 122.66 11.35 122.32 12.24 C121.79 13.61 121.79 13.61 121.25 15 C120.7 16.42 120.7 16.42 120.14 17.87 C119.1 20.58 118.05 23.29 117 26 C116.19 28.1 115.37 30.21 114.56 32.31 C114.18 33.29 113.8 34.28 113.41 35.29 C111.01 41.6 108.65 47.92 106.3 54.25 C104.29 59.62 102.23 64.97 100.09 70.29 C97.82 75.95 95.6 81.63 93.38 87.31 C92.4 89.79 91.43 92.26 90.46 94.74 C90.04 95.82 89.61 96.9 89.17 98.02 C88.12 100.68 87.06 103.34 86 106 C70.82 106 55.64 106 40 106 C37.69 99.73 35.38 93.46 33 87 C31.13 82.9 31.13 82.9 29.23 78.81 C27.73 75.39 26.52 71.88 25.32 68.35 C21.99 58.79 18.27 49.4 14.5 40 C10.72 30.57 6.98 21.14 3.59 11.56 C3.34 10.86 3.1 10.15 2.84 9.43 C1.75 6.31 0.71 3.22 0 0 Z " fill="#2EB05C" transform="translate(584,362)"/>
<path d="M0 0 C46.2 0 92.4 0 140 0 C140 4.95 140 9.9 140 15 C121.85 15 103.7 15 85 15 C85 56.91 85 98.82 85 142 C75.1 142 65.2 142 55 142 C55 100.09 55 58.18 55 15 C36.85 15 18.7 15 0 15 C0 10.05 0 5.1 0 0 Z " fill="#2EB05C" transform="translate(245,326)"/>
<path d="M0 0 C9.57 0 19.14 0 29 0 C29 46.86 29 93.72 29 142 C19.43 142 9.86 142 0 142 C0 95.14 0 48.28 0 0 Z " fill="#2EB05C" transform="translate(859,326)"/>
<path d="M0 0 C0.85 0 1.71 0 2.58 0 C5.27 0.01 7.96 0.02 10.65 0.04 C12.49 0.04 14.33 0.04 16.17 0.05 C20.64 0.06 25.12 0.08 29.59 0.1 C29.59 5.05 29.59 10 29.59 15.1 C27.47 15.14 25.35 15.17 23.16 15.21 C21.07 15.26 18.98 15.31 16.89 15.36 C15.46 15.39 14.02 15.42 12.59 15.44 C2.83 15.6 -6.24 15.94 -14.79 21.16 C-18.28 25.07 -19.78 29.16 -21.41 34.1 C-21.74 35.09 -22.07 36.08 -22.41 37.1 C-22.53 39.32 -22.59 41.55 -22.62 43.77 C-22.63 44.78 -22.63 44.78 -22.65 45.81 C-22.68 48.04 -22.7 50.26 -22.73 52.48 C-22.75 54.03 -22.77 55.57 -22.79 57.11 C-22.84 61.17 -22.89 65.23 -22.94 69.29 C-22.99 73.43 -23.05 77.57 -23.1 81.72 C-23.21 89.84 -23.31 97.97 -23.41 106.1 C-32.65 106.1 -41.89 106.1 -51.41 106.1 C-51.5 96.62 -51.57 87.15 -51.62 77.67 C-51.64 73.27 -51.67 68.87 -51.71 64.47 C-51.76 60.21 -51.78 55.96 -51.79 51.71 C-51.8 50.09 -51.81 48.48 -51.83 46.86 C-52 33.96 -50.32 23.97 -41.41 14.1 C-29.73 2.25 -16.08 -0.1 0 0 Z " fill="#2EB05C" transform="translate(431.41015625,361.90234375)"/>
</svg>
